<?xml version="1.0" standalone="no"?><!DOCTYPE svg PUBLIC "-//W3C//DTD SVG 1.1//EN" "http://www.w3.org/Graphics/SVG/1.1/DTD/svg11.dtd"><svg t="1563690052961" class="icon" viewBox="0 0 1024 1024" version="1.1" xmlns="http://www.w3.org/2000/svg" p-id="2342" width="200" height="200" xmlns:xlink="http://www.w3.org/1999/xlink"><defs><style type="text/css"></style></defs><path d="M512 213.2c41.2 0.2 74.6-33.2 74.6-74.6 0-41.2-33.4-74.6-74.6-74.6-41.2 0-74.6 33.4-74.6 74.6 0 41.2 33.4 74.6 74.6 74.6zM586.8 230h-149.6c-56.4 0-93.2 49.6-93.2 96.8V554c0 44 62 44 62 0V344h12v571.2c0 60.8 84 58.8 86 0V586h16v329.4c3.4 62.4 86 56.4 86-0.2V344h10v210c0 44 64 44 64 0V326.8c0-47-37-96.8-93.2-96.8z" p-id="2343"></path></svg>